<?xml version="1.0" encoding="utf-8"?>
<!-- Generator: Adobe Illustrator 22.0.1, SVG Export Plug-In . SVG Version: 6.00 Build 0)  -->
<svg version="1.1" id="Layer_1" xmlns="http://www.w3.org/2000/svg" xmlns:xlink="http://www.w3.org/1999/xlink" x="0px" y="0px"
	 viewBox="0 0 789.1 111.1" style="enable-background:new 0 0 789.1 111.1;" xml:space="preserve">
<g>
	<path style="fill:#1D345C;" d="M17.5,60.1c0,11.6,8.5,16.1,18.2,16.1c6.3,0,16-1.9,16-10.8c0-9.4-12.3-11-24.4-14.4
		C15.1,47.6,2.8,42.6,2.8,26.3C2.8,8.5,18.7,0,33.6,0c17.2,0,33,7.9,33,28H49c-0.6-10.5-7.6-13.1-16.3-13.1
		c-5.8,0-12.5,2.6-12.5,9.9c0,6.7,3.9,7.5,24.6,13.1c6,1.6,24.4,5.6,24.4,25.3C69.3,79.1,57.4,91,35,91C16.8,91-0.2,81.5,0,60.1
		H17.5z M73.8,26h15.6v8h0.2c3.9-6.7,10.4-9.7,17.8-9.7c18.7,0,27.1,15.9,27.1,33.8c0,16.8-8.8,32.5-26.2,32.5
		c-7.2,0-14-3.3-17.9-9.5h-0.2v29.9H73.8V26z M118,57.7c0-10-3.8-20.3-14.3-20.3c-10.7,0-14.2,10.1-14.2,20.3c0,10.2,3.7,20,14.3,20
		C114.6,77.6,118,67.9,118,57.7 M153.2,61.7c0.5,10.9,5.5,15.9,14.6,15.9c6.6,0,11.9-4.3,12.9-8.2h14.4
		c-4.6,14.8-14.4,21.2-27.9,21.2c-18.8,0-30.4-13.6-30.4-33.1c0-18.9,12.3-33.2,30.4-33.2c20.3,0,30.1,18,28.9,37.4H153.2z
		 M179.8,50.8c-1.5-8.8-5.1-13.4-13-13.4c-10.4,0-13.4,8.5-13.6,13.4H179.8z M201.8,2.1h16.4V89h-16.4V2.1z"/>
</g>
<rect x="227.1" y="2.1" style="fill:#1D345C;" width="16.4" height="86.9"/>
<g>
	<path style="fill:#1D345C;" d="M265.2,61.7c0.5,10.9,5.5,15.9,14.6,15.9c6.6,0,11.9-4.3,12.9-8.2h14.4
		c-4.6,14.8-14.4,21.2-27.9,21.2c-18.8,0-30.4-13.6-30.4-33.1c0-18.9,12.3-33.2,30.4-33.2c20.3,0,30.1,18,28.9,37.4H265.2z
		 M291.9,50.8c-1.5-8.8-5.1-13.4-13-13.4c-10.4,0-13.4,8.5-13.6,13.4H291.9z"/>
	<path style="fill:#1D345C;" d="M313.4,26H329v11.7h0.2c3-7.9,11.1-13.4,19-13.4c1.2,0,2.5,0.2,3.6,0.6V41c-1.5-0.4-3.9-0.6-5.9-0.6
		c-12,0-16.1,9.1-16.1,20.2V89h-16.4V26z"/>
</g>
<polygon style="fill:#00B5E2;" points="354.8,3.1 380.3,3.1 399.5,62.8 399.8,62.8 418,3.1 443.5,3.1 443.5,90 426.5,90 426.5,28.4 
	426.3,28.4 406.1,90 392.2,90 372,29 371.8,29 371.8,90 354.8,90 "/>
<g>
	<path style="fill:#00B5E2;" d="M466.5,62.7c0.5,10.9,5.5,15.9,14.6,15.9c6.6,0,11.9-4.3,12.9-8.2h14.4
		c-4.6,14.8-14.4,21.2-27.9,21.2c-18.8,0-30.4-13.6-30.4-33.1c0-18.9,12.3-33.2,30.4-33.2c20.3,0,30.1,18,28.9,37.4H466.5z
		 M493.1,51.8c-1.5-8.8-5.1-13.4-13-13.4c-10.4,0-13.4,8.5-13.6,13.4H493.1z M535.5,27h12v11.6h-12v31.2c0,5.8,1.4,7.3,6.9,7.3
		c1.7,0,3.3-0.1,5.1-0.5v13.5c-2.8,0.5-6.3,0.6-9.6,0.6c-10,0-18.8-2.4-18.8-15V38.6h-9.9V27h9.9V8.2h16.4V27z M591.4,49.2
		c-1-7.1-5.3-10.8-12.1-10.8c-10.5,0-14,11.2-14,20.4c0,9,3.3,19.8,13.6,19.8c7.6,0,12-5.1,13-12.8h15.8
		c-2.1,16.7-13,25.8-28.7,25.8c-18,0-30.1-13.4-30.1-32.2c0-19.6,11.1-34.1,30.4-34.1c14.1,0,27,7.8,28,23.9H591.4z M611.8,46.4
		c0.9-16.2,14.6-21.1,28-21.1c11.9,0,26.2,2.8,26.2,17.9V76c0,5.7,0.6,11.4,2.1,14h-16.6c-0.6-1.9-1-4-1.2-6.1
		c-5.2,5.7-12.8,7.8-20.1,7.8c-11.3,0-20.3-6-20.3-18.9c0-14.2,10.1-17.5,20.3-19.1c10-1.5,19.4-1.2,19.4-8.3
		c0-7.4-4.8-8.5-10.6-8.5c-6.2,0-10.3,2.7-10.8,9.5H611.8z M649.6,59.2c-2.8,2.6-8.5,2.7-13.6,3.7c-5.1,1.1-9.7,2.9-9.7,9.2
		c0,6.5,4.7,8,10,8c12.8,0,13.3-10.7,13.3-14.5V59.2z M674.6,3.1H691V90h-16.4V3.1z"/>
	<path style="fill:#00B5E2;" d="M702.9,38.6h-9.8V27h9.8v-4.9c0-11.1,6.6-19.1,19.9-19.1c2.9,0,5.9,0.4,8.6,0.5v12.9
		c-2-0.2-3.9-0.4-6-0.4c-4.4,0-6.2,1.9-6.2,7.2V27h11.3v11.6h-11.3V90h-16.4V38.6z"/>
	<path style="fill:#00B5E2;" d="M746,62.7c0.5,10.9,5.5,15.9,14.6,15.9c6.6,0,11.9-4.3,12.9-8.2H788c-4.6,14.8-14.4,21.2-27.9,21.2
		c-18.8,0-30.4-13.6-30.4-33.1c0-18.9,12.3-33.2,30.4-33.2c20.3,0,30.1,18,28.9,37.4H746z M772.7,51.8c-1.5-8.8-5.1-13.4-13-13.4
		c-10.4,0-13.4,8.5-13.6,13.4H772.7z"/>
</g>
</svg>
